Coordinates
version=1
nRows=23
nColumns=30
inDegrees=yes

Units are S.I. units (second, meters, Newtons, ...)
Angles are in degrees.

endheader
time	floatyaw	floatroll	floatpitch	floatx	floaty	floatz	pro_sup_l	deviation_l	flexion_l	cmc_flexion_l	cmc_abduction_l	mp_flexion_l	ip_flexion_l	2mcp_flexion_l	2mcp_abduction_l	2pm_flexion_l	2md_flexion_l	3mcp_flexion_l	3mcp_abduction_l	3pm_flexion_l	3md_flexion_l	4mcp_flexion_l	4mcp_abduction_l	4pm_flexion_l	4md_flexion_l	5mcp_flexion_l	5mcp_abduction_l	5pm_flexion_l	5md_flexion_l
0.005000	-160.147433	-5.066637	-73.570646	-0.064692	-0.135203	-0.112410	98.681555	22.964587	-0.457297	15.575182	14.842826	-34.825635	-56.060882	49.087709	16.191311	63.591485	68.026311	52.733610	6.046626	82.053401	62.326492	56.387171	-6.251631	91.732506	73.371556	61.080432	-14.577256	98.951756	71.441289
0.015000	-160.147433	-5.066637	-73.570646	-0.065018	-0.133600	-0.112096	96.730342	22.695878	-0.576270	15.914224	14.879272	-34.955151	-56.470690	50.258206	16.275088	63.319132	68.663319	53.783098	6.042343	82.003500	62.663516	57.296160	-6.267019	91.687103	73.535866	61.859526	-14.598130	99.179132	71.576855
0.025000	-160.147433	-5.066637	-73.570646	-0.065331	-0.131696	-0.111908	94.948425	22.301921	-0.688903	16.304987	15.063070	-34.994823	-56.845758	51.408715	16.346086	62.876254	69.171314	54.738135	6.028512	81.826522	62.955493	58.110797	-6.286467	91.577543	73.734433	62.473576	-14.617248	99.311058	71.785397
0.035000	-160.147433	-5.066637	-73.570646	-0.065671	-0.129797	-0.111799	93.242669	21.771713	-0.662661	16.745960	15.312302	-35.032522	-57.271088	52.606975	16.409268	62.221109	69.574633	55.652014	6.003416	81.546169	63.203232	58.864303	-6.310778	91.478117	73.960970	62.983138	-14.628556	99.463083	72.039669
0.045000	-160.147433	-5.066637	-73.570646	-0.066042	-0.128256	-0.111732	91.532803	21.115348	-0.431503	17.209644	15.523851	-35.151679	-57.787022	53.840592	16.465568	61.407973	69.884771	56.533415	5.970506	81.223272	63.404932	59.544813	-6.337659	91.466438	74.193705	63.432178	-14.626708	99.724865	72.295161
0.055000	-160.147433	-5.066637	-73.570646	-0.066408	-0.127343	-0.111685	89.794765	20.368015	-0.018203	17.651698	15.614356	-35.390746	-58.368722	55.006216	16.512080	60.577856	70.107095	57.335443	5.936448	80.939324	63.560575	60.107061	-6.362531	91.588278	74.405009	63.831873	-14.608491	100.119669	72.508293
0.065000	-160.147433	-5.066637	-73.570646	-0.066708	-0.127142	-0.111656	88.078883	19.585579	0.485493	18.027610	15.550277	-35.721135	-58.934635	55.949734	16.544699	59.897842	70.250324	57.973310	5.908060	80.763584	63.673682	60.493180	-6.380751	91.834977	74.570841	64.156017	-14.574945	100.593280	72.652693
0.075000	-160.147433	-5.066637	-73.570646	-0.066881	-0.127527	-0.111656	86.491912	18.831666	0.968427	18.306714	15.352646	-36.060467	-59.382615	56.536078	16.561217	59.485163	70.329301	58.362010	5.889612	80.723317	63.748322	60.655422	-6.389767	92.149191	74.676194	64.354246	-14.531937	101.041797	72.725482
0.085000	-160.147433	-5.066637	-73.570646	-0.066894	-0.128236	-0.111689	85.148667	18.160784	1.350432	18.478005	15.076728	-36.314983	-59.635872	56.710074	16.563002	59.361461	70.359329	58.455424	5.881671	80.796111	63.784905	60.574931	-6.389985	92.455863	74.715684	64.378921	-14.488016	101.365037	72.741542
0.095000	-160.147433	-5.066637	-73.570646	-0.066750	-0.128983	-0.111751	84.119589	17.605345	1.608115	18.548672	14.780996	-36.424232	-59.673715	56.515993	16.554642	59.458750	70.349723	58.267029	5.881791	80.927349	63.779791	60.270584	-6.384151	92.698011	74.691861	64.210886	-14.450849	101.514389	72.722010
0.105000	-160.147433	-5.066637	-73.570646	-0.066485	-0.129567	-0.111824	83.403824	17.172483	1.768873	18.538869	14.503648	-36.381417	-59.531982	56.070142	16.542143	59.663519	70.304323	57.863182	5.886350	81.058847	63.729911	59.794544	-6.375942	92.855539	74.614250	63.869780	-14.424736	101.507718	72.685400
0.115000	-160.147433	-5.066637	-73.570646	-0.066152	-0.129917	-0.111885	82.938791	16.850367	1.883807	18.475455	14.256440	-36.222570	-59.277685	55.508595	16.530750	59.867269	70.228702	57.336198	5.892340	81.150349	63.638922	59.217243	-6.368599	92.939759	74.499279	63.406155	-14.410354	101.407177	72.644741
0.125000	-160.147433	-5.066637	-73.570646	-0.065798	-0.130072	-0.111912	82.634417	16.618675	1.997365	18.386219	14.032305	-35.998917	-58.976552	54.941075	16.523312	59.998844	70.136715	56.773878	5.898204	81.185257	63.519998	58.609349	-6.364065	92.973655	74.368448	62.883679	-14.406049	101.279128	72.608232
0.135000	-160.147433	-5.066637	-73.570646	-0.065456	-0.130126	-0.111895	82.410050	16.457617	2.128261	18.295228	13.815623	-35.752968	-58.671483	54.429622	16.519789	60.032741	70.049406	56.238997	5.903606	81.164962	63.392435	58.027730	-6.362744	92.974376	74.242508	62.361741	-14.409394	101.161986	72.579688
0.145000	-160.147433	-5.066637	-73.570646	-0.065142	-0.130176	-0.111835	82.216915	16.352781	2.267433	18.219342	13.587111	-35.509602	-58.378420	53.991379	16.518038	59.980919	69.986205	55.762536	5.908665	81.101142	63.273535	57.508106	-6.363792	92.947941	74.133366	61.883742	-14.418290	101.057207	72.557744
0.155000	-160.147433	-5.066637	-73.570646	-0.064859	-0.130282	-0.111744	82.041002	16.295728	2.389782	18.165959	13.324003	-35.279832	-58.094685	53.613797	16.515443	59.877745	69.955252	55.347284	5.913325	81.011044	63.171023	57.063304	-6.365773	92.894655	74.039268	61.471247	-14.431438	100.942124	72.535865
0.165000	-160.147433	-5.066637	-73.570646	-0.064600	-0.130460	-0.111639	81.891868	16.281662	2.470912	18.132667	13.001402	-35.068260	-57.810962	53.271200	16.510477	59.764071	69.950846	54.976970	5.917234	80.914526	63.081519	56.685362	-6.367385	92.817210	73.947964	61.122931	-14.448165	100.792275	72.505409
0.175000	-160.147433	-5.066637	-73.570646	-0.064353	-0.130691	-0.111538	81.787035	16.306070	2.499822	18.109643	12.598260	-34.877370	-57.520508	52.937710	16.503402	59.673722	69.960320	54.627397	5.920018	80.830254	62.996247	56.351081	-6.367980	92.724730	73.846587	60.818457	-14.467819	100.599328	72.461159
0.185000	-160.147433	-5.066637	-73.570646	-0.064108	-0.130939	-0.111453	81.739557	16.362299	2.482542	18.084596	12.105753	-34.707744	-57.223231	52.595759	16.495832	59.624897	69.974726	54.276801	5.921589	80.771036	62.909516	56.030809	-6.367653	92.631042	73.731190	60.527249	-14.489151	100.376273	72.405603
0.195000	-160.147433	-5.066637	-73.570646	-0.063854	-0.131171	-0.111390	81.751811	16.441238	2.436996	18.048466	11.533036	-34.556880	-56.924936	52.240173	16.489586	59.618047	69.994483	53.912933	5.922181	80.740371	62.823571	55.698596	-6.366958	92.549260	73.609067	60.219945	-14.510172	100.149558	72.348296
0.205000	-160.147433	-5.066637	-73.570646	-0.063590	-0.131365	-0.111350	81.815223	16.532904	2.383314	17.999281	10.906947	-34.419074	-56.633524	51.877540	16.485573	59.639613	70.025963	53.535466	5.922151	80.731743	62.746883	55.340326	-6.366479	92.485881	73.493115	59.878486	-14.528609	99.944367	72.300367
0.215000	-160.147433	-5.066637	-73.570646	-0.063320	-0.131514	-0.111326	81.914411	16.628795	2.335009	17.942353	10.265103	-34.286984	-56.354959	51.521347	16.483343	59.669087	70.073288	53.154172	5.921772	80.730800	62.688218	54.957035	-6.366516	92.437268	73.393606	59.501248	-14.542767	99.771774	72.268181
0.225000	-160.147433	-5.066637	-73.570646	-0.063051	-0.131625	-0.111311	82.033472	16.723825	2.295125	17.886967	9.644117	-34.154137	-56.091605	51.184852	16.481454	59.686736	70.133079	52.784280	5.921213	80.719821	62.651109	54.562600	-6.367029	92.390524	73.313432	59.101683	-14.552303	99.624465	72.250618
